<?xml version="1.0" encoding="UTF-8"?>
<svg xmlns="http://www.w3.org/2000/svg" viewBox="0 0 1000 1000">
  <defs>
    <style>
      .cls-1 {
        fill: #f8f8f8;
      }
    </style>
  </defs>
  <g id="bg">
    <path d="M500,0h0C775.96,0,1000,224.04,1000,500h0c0,275.96-224.04,500-500,500h0C224.04,1000,0,775.96,0,500H0C0,224.04,224.04,0,500,0Z"/>
  </g>
  <g id="initial">
    <g>
      <path class="cls-1" d="M815.98,331.74c-24.4,20.5-63.89,60.95-104.3,111.59,27.73-1.94,44.86-5.31,53.25-10.6,2.58-1.43,5.95-.09,6.47,2.9-3.72,12.56-36.32,14.23-67.59,16.99-51.88,62.01-108.44,137.82-125.91,206.26-.42,1.64-1.88,2.75-3.53,2.34-67.96-16.92,70.42-181.82,89.87-207.44-37.28,.42-72.55-1.34-107.43-1.14-.04-.01-.1-.01-.14,0,2.33-3.08,4.6-6.07,6.8-8.97,.04,0,.1,0,.15,.01,34.18,.47,72.12,1.95,108.45,1.04,50.15-57.81,115.18-143.54,143.46-117.79,.13,.11,.39,.38,.7,.74,1.1,1.18,.98,3.05-.26,4.08Z"/>
      <path class="cls-1" d="M670,302.92c-.69-.34-1.52-.32-2.26-.1-63.36,19.78-96.02,21.17-135.64,21.88-69.49,.3-135.69,6.32-173.18,72.39-1.75,2.87-.59,5.32,2.32,5.94,6.72,1.43,21.25,1.68,26.25-7.52,9.29-17.09,14.45-26.25,24.96-35.7,10.01-8.51,20.58-14.21,35.61-18.88,53.97-16.79,120.92-2.25,179.05-17.25-45.96,34.33-81.31,79.92-113.6,121.07-532.66,20.28-341.83,509.96,13.98,32.51,76.89-103.18,112.15-142.81,142.72-165.58,2.8-2.08,2.7-7.3-.22-8.75Zm-322.97,328.97c-214.04,154.48-248.74-165.31,159.25-177.95-61.85,84.89-112.39,144.13-159.25,177.95Z"/>
    </g>
    <path d="M593.22,403.07l-.3,.39c.12-.17,.23-.3,.3-.39Z"/>
  </g>
</svg>